<svg height="1365.333" width="1365.333" viewBox="0 0 1365.333 1365.333" xmlns="http://www.w3.org/2000/svg">
    <g transform="matrix(1.33333 0 0 -1.33333 0 1365.333)">
        <path d="M223.693 553.415s-32.004-16.015-59.007-52.05c-21.002-30.028-20.176-65.193 7.001-101.096 25.003-33.032 82.01-60.058 114.013-71.068 62.33-21.444 116.015-30.03 202.025-37.036m329.041 250.239c16.002-11.011 32.004-25.023 47.006-49.046 14-26.025 16.43-56.846-10.747-92.75-25.003-33.031-81.724-61.075-113.953-71.408-59.323-19.018-87.326-24.023-128.331-29.027" fill="none" stroke="#3dcd58" stroke-width="43" strokeLinecap="round" stroke-linejoin="round" stroke-miterlimit="43"/>
        <path d="M430.219 353.724l61.507-61.56-61.507-59.555" fill="none" stroke="#3dcd58" stroke-width="43" strokeLinecap="round" stroke-linejoin="round" stroke-miterlimit="43"/>
        <path d="M347.364 657.451c48.66 0 64.232-30.865 64.232-51.719 0-10.567-1.946-23.914-28.64-41.154 25.86-6.117 38.094-22.8 38.094-47.27 0-29.753-21.411-64.232-72.574-64.232-60.895 0-73.13 44.49-73.13 57.837 0 9.454 7.786 19.742 21.133 19.742 27.25 0 14.18-44.767 50.329-44.767 20.854 0 27.25 19.742 27.25 30.864 0 15.85-10.288 30.31-25.026 30.31-3.893 0-19.464-2.782-22.801-2.782-6.951 0-16.961 5.84-16.961 17.796 0 11.957 11.678 17.796 18.908 17.796l9.454-.278c21.967 0 27.806 13.903 27.806 23.635 0 11.957-8.342 21.411-21.69 21.411-29.751 0-18.907-32.812-43.098-32.812-10.845 0-18.91 7.786-18.91 18.91 0 13.624 15.85 46.713 65.624 46.713m149.039-133.747c0-21.132 11.123-37.816 27.806-37.816 15.849 0 25.026 14.737 25.026 34.48 0 12.234-4.45 35.869-26.138 35.869-14.46 0-26.694-12.512-26.694-32.533m29.475 133.748c39.206 0 59.782-24.192 59.782-43.1 0-8.342-6.395-18.074-18.352-18.074-23.913 0-19.742 28.363-42.821 28.363-22.245 0-28.918-23.358-30.586-55.335 10.288 11.679 22.8 17.796 40.04 17.796 38.929 0 60.896-33.645 60.896-66.178 0-35.314-25.026-67.847-71.74-67.847-56.725 0-77.023 46.714-77.023 98.155 0 53.11 20.577 106.22 79.804 106.22m137.637-100.381c0-44.49 5.283-69.516 25.86-69.516 22.523 0 26.138 28.641 26.138 70.35 0 46.714-7.23 65.066-26.416 65.066-21.967 0-25.582-28.362-25.582-65.9m-31.143 72.296c10.845 17.24 31.977 28.084 55.891 28.084 34.48 0 74.242-18.352 74.242-103.439 0-38.094-6.952-57.003-16.962-72.018-16.405-24.469-40.875-28.918-55.612-28.918-10.289 0-32.81 2.781-50.329 22.801-13.069 15.015-23.079 35.314-23.079 80.082 0 27.25 2.502 52.275 15.85 73.408m150.817 98.457c0-14.703 11.674-26.81 26.81-26.81 14.703 0 26.811 11.675 26.811 26.81 0 14.703-12.108 26.38-27.244 26.38-13.838 0-26.378-11.244-26.378-26.38M810 791.391c35.027 0 64-28.54 64-63.999 0-35.027-28.54-63.568-64-63.568s-64 28.541-64 63.568c0 35.892 28.973 64 64 64" fill="#3dcd58"/>
    </g>
</svg>